<?xml version="1.0" encoding="UTF-8" standalone="no"?>
<svg
   width="128"
   height="128"
   version="1.1"
   id="svg22"
   sodipodi:docname="icon_dark.svg"
   inkscape:version="1.2.2 (b0a8486541, 2022-12-01)"
   xmlns:inkscape="http://www.inkscape.org/namespaces/inkscape"
   xmlns:sodipodi="http://sodipodi.sourceforge.net/DTD/sodipodi-0.dtd"
   xmlns="http://www.w3.org/2000/svg"
   xmlns:svg="http://www.w3.org/2000/svg">
  <defs
     id="defs26" />
  <sodipodi:namedview
     id="namedview24"
     pagecolor="#505050"
     bordercolor="#eeeeee"
     borderopacity="1"
     inkscape:showpageshadow="0"
     inkscape:pageopacity="0"
     inkscape:pagecheckerboard="0"
     inkscape:deskcolor="#505050"
     showgrid="false"
     inkscape:zoom="5.6734271"
     inkscape:cx="49.441016"
     inkscape:cy="63.894362"
     inkscape:window-width="1444"
     inkscape:window-height="1209"
     inkscape:window-x="558"
     inkscape:window-y="117"
     inkscape:window-maximized="0"
     inkscape:current-layer="svg22" />
  <rect
     width="124"
     height="124"
     x="2"
     y="2"
     fill="#363d52"
     stroke="#212532"
     stroke-width="4"
     rx="14"
     id="rect2" />
  <g
     fill="#fff"
     transform="translate(12.322 12.322)scale(.101)"
     id="g14">
    <path
       d="M105 673v33q407 354 814 0v-33z"
       id="path4" />
    <path
       fill="#478cbf"
       d="m105 673 152 14q12 1 15 14l4 67 132 10 8-61q2-11 15-15h162q13 4 15 15l8 61 132-10 4-67q3-13 15-14l152-14V427q30-39 56-81-35-59-83-108-43 20-82 47-40-37-88-64 7-51 8-102-59-28-123-42-26 43-46 89-49-7-98 0-20-46-46-89-64 14-123 42 1 51 8 102-48 27-88 64-39-27-82-47-48 49-83 108 26 42 56 81zm0 33v39c0 276 813 276 814 0v-39l-134 12-5 69q-2 10-14 13l-162 11q-12 0-16-11l-10-65H446l-10 65q-4 11-16 11l-162-11q-12-3-14-13l-5-69z"
       id="path6" />
    <path
       d="M483 600c0 34 58 34 58 0v-86c0-34-58-34-58 0z"
       id="path8" />
    <circle
       cx="725"
       cy="526"
       r="90"
       id="circle10" />
    <circle
       cx="299"
       cy="526"
       r="90"
       id="circle12" />
  </g>
  <g
     fill="#414042"
     transform="translate(12.322 12.322)scale(.101)"
     id="g20">
    <circle
       cx="307"
       cy="532"
       r="60"
       id="circle16" />
    <circle
       cx="717"
       cy="532"
       r="60"
       id="circle18" />
  </g>
  <path
     style="fill:#333333;stroke:#bd11e4;stroke-width:0.211512"
     d="M 46.973372,90.322224 C 43.580361,90.050152 40.680424,89.82239 40.52907,89.816087 40.296069,89.806393 40.224093,89.266756 40.059623,86.296525 39.858596,82.66609 39.717863,82.074077 38.987019,81.784476 38.712681,81.675769 24.386128,80.293155 23.486686,80.288585 L 23.0901,80.28657 V 67.897164 55.50776 l -1.295549,-1.755485 c -1.647167,-2.231928 -4.344781,-6.255456 -4.344781,-6.480297 0,-0.314996 2.916901,-4.593749 4.389528,-6.438926 0.799746,-1.002068 1.999575,-2.390118 2.666287,-3.084556 l 1.212204,-1.262612 1.991036,1.01522 c 1.624506,0.828327 3.608641,1.999146 5.97445,3.525466 0.225588,0.145539 0.577918,-0.07458 1.762602,-1.10118 1.693821,-1.467799 4.532474,-3.520215 6.250935,-4.519578 l 1.17365,-0.682531 -0.101053,-1.057562 c -0.05558,-0.581659 -0.185916,-1.866647 -0.289635,-2.855528 -0.10372,-0.988882 -0.205872,-2.849232 -0.227006,-4.134112 l -0.03842,-2.336146 1.727026,-0.759387 c 3.671487,-1.61438 10.281224,-3.601702 10.560103,-3.175061 0.632371,0.967432 2.449362,4.361642 3.393781,6.339718 l 1.151889,2.41262 1.189787,-0.125566 c 1.553618,-0.163964 5.962345,-0.161058 7.548191,0.005 l 1.246857,0.130542 0.917323,-1.981275 c 0.50453,-1.089701 1.53762,-3.091715 2.295757,-4.448919 1.257933,-2.251931 1.418117,-2.463392 1.832417,-2.418997 1.621078,0.173709 7.808502,2.220527 10.740518,3.552996 l 1.182478,0.537382 -0.0913,1.808214 c -0.096,1.901365 -0.545071,7.075182 -0.69241,7.977325 -0.08228,0.5038 -0.01495,0.570415 1.425341,1.410082 1.704236,0.993546 4.73187,3.191234 6.370642,4.624299 l 1.092997,0.955799 1.991558,-1.252264 c 1.095357,-0.688746 2.970344,-1.745975 4.166637,-2.349399 l 2.17508,-1.097133 1.0563,1.145692 c 2.25245,2.443059 5.22193,6.371813 6.82027,9.023507 l 0.39248,0.651142 -2.03948,3.025094 c -1.12172,1.663801 -2.39453,3.486496 -2.82847,4.050432 l -0.78898,1.02534 V 67.84683 80.28657 l -0.39658,0.0011 c -0.21812,5.28e-4 -3.75079,0.310704 -7.850361,0.689209 -7.936643,0.732774 -8.093713,0.764714 -8.457065,1.7197 -0.10429,0.274102 -0.272037,1.95607 -0.372768,3.737704 -0.100733,1.781635 -0.215631,3.271817 -0.255332,3.311518 -0.0397,0.0397 -2.640394,0.263864 -5.779317,0.49814 -3.138924,0.234277 -6.070306,0.463894 -6.514182,0.510263 l -0.807049,0.08431 -0.406139,-3.11674 c -0.223376,-1.714208 -0.515914,-3.33352 -0.650083,-3.598473 -0.51471,-1.016435 -0.517391,-1.01672 -9.526954,-1.013882 -6.196133,0.002 -8.354353,0.05678 -8.672582,0.220325 -0.867165,0.445653 -1.055272,0.960472 -1.432016,3.919194 -0.412714,3.241212 -0.482597,3.621765 -0.659392,3.590692 -0.07086,-0.01246 -2.904937,-0.245249 -6.297948,-0.517321 z M 65.45053,75.287117 c 0.316479,-0.132232 0.789833,-0.495245 1.051901,-0.806694 l 0.476486,-0.566271 V 68.73947 c 0,-2.846073 -0.07439,-5.370343 -0.165313,-5.609484 -0.507066,-1.333683 -2.751873,-1.93812 -4.340972,-1.168849 -0.646338,0.312886 -0.898138,0.565697 -1.16555,1.170222 -0.315722,0.713743 -0.337075,1.141277 -0.286992,5.746412 0.06054,5.567131 0.07167,5.61871 1.358375,6.298784 0.758652,0.400976 2.248665,0.454601 3.072065,0.110562 z M 44.439101,74.392716 c 1.733043,-0.367344 3.236638,-1.204739 4.572011,-2.546286 3.555428,-3.571866 3.544364,-9.304045 -0.02485,-12.873256 -3.575176,-3.575176 -9.31614,-3.576888 -12.897022,-0.0038 -3.26728,3.260129 -3.648985,8.256701 -0.914521,11.971207 2.097836,2.84971 5.726888,4.202 9.264379,3.45218 z m 43.031358,-0.005 c 3.271367,-0.693232 6.081984,-3.350342 6.911135,-6.53367 1.282904,-4.925402 -1.655179,-10.001054 -6.523154,-11.269 -3.092105,-0.80539 -6.421808,0.09998 -8.731025,2.374017 -3.628288,3.57302 -3.655515,9.366622 -0.06091,12.961226 2.237106,2.237106 5.277851,3.129879 8.403954,2.467427 z"
     id="path324" />
  <path
     style="fill:#000000;stroke:#bd11e4;stroke-width:0.211512"
     d="m 57.901511,108.19353 c -2.524888,-0.2119 -6.125306,-0.64107 -7.931714,-0.94546 C 35.101307,104.74263 25.456644,98.758863 23.442489,90.789928 23.163654,89.68673 23.0901,88.812948 23.0901,86.603746 v -2.79197 h 0.483021 c 1.378325,0 12.663648,1.117462 12.753957,1.262884 0.05807,0.09351 0.208334,1.729129 0.333916,3.634705 0.223053,3.384607 0.239249,3.475602 0.700755,3.937107 0.562851,0.562851 0.25684,0.525277 9.200446,1.129715 9.015853,0.609321 8.866832,0.6081 9.397622,0.07696 0.378002,-0.378254 0.493462,-0.815612 0.882659,-3.343475 0.246272,-1.599562 0.492459,-3.126417 0.54708,-3.393011 l 0.09931,-0.484716 h 6.595757 c 4.629074,0 6.595756,0.05709 6.595756,0.191476 0,0.580293 0.92756,6.14456 1.095576,6.572162 0.394622,1.00432 0.468283,1.007181 9.668678,0.375501 8.708557,-0.597912 9.285385,-0.685042 9.587756,-1.448225 0.06863,-0.173236 0.245812,-1.901317 0.393728,-3.840181 0.147914,-1.938863 0.279833,-3.536128 0.293153,-3.549477 0.04681,-0.04692 12.36818,-1.123395 12.84716,-1.122414 l 0.48471,9.93e-4 v 2.475075 c 0,2.795115 -0.28925,4.551759 -1.04845,6.367389 -3.39165,8.111106 -15.605187,13.914166 -32.403693,15.396096 -2.641109,0.23299 -11.521315,0.32582 -13.69749,0.14319 z"
     id="path395" />
  <path
     style="fill:#000000;stroke:#bd11e4;stroke-width:0.211512"
     d="m 46.723431,90.134835 c -3.336591,-0.27882 -6.107284,-0.547699 -6.157097,-0.597511 -0.04981,-0.04981 -0.192058,-1.526437 -0.316103,-3.281388 -0.246354,-3.485308 -0.430828,-4.32313 -1.005805,-4.567999 -0.32011,-0.136329 -9.705323,-1.108024 -14.523918,-1.503732 L 23.266361,80.064791 V 67.743453 55.422117 l -1.755426,-2.445894 c -2.569537,-3.580222 -3.89913,-5.65935 -3.765833,-5.888754 0.06463,-0.111224 0.812875,-1.23335 1.66277,-2.493611 1.780403,-2.640057 3.434609,-4.745495 5.152684,-6.558227 l 1.206065,-1.272514 1.574138,0.79058 c 0.865776,0.434818 2.689318,1.469233 4.052314,2.2987 l 2.478177,1.508121 0.64634,-0.450019 c 0.355488,-0.247512 1.280878,-0.974755 2.056424,-1.616096 1.287856,-1.065 5.797247,-4.182777 6.284815,-4.3453 0.154041,-0.05135 0.131652,-0.87945 -0.08975,-3.319802 -0.162241,-1.788266 -0.293939,-4.132877 -0.292665,-5.210249 l 0.0023,-1.958858 1.013497,-0.451881 c 3.115142,-1.388929 9.487199,-3.471678 10.627113,-3.473543 0.286171,-4.68e-4 1.754826,2.588143 3.699813,6.521187 l 1.089564,2.203254 h 5.164069 5.164069 L 69.876282,27.8394 c 0.911336,-2.023575 3.402036,-6.624003 3.809163,-7.035685 0.339217,-0.343009 0.360273,-0.343262 1.621669,-0.01951 2.88076,0.739376 9.4645,3.102335 10.234502,3.673248 0.267958,0.198676 0.278153,0.456104 0.109881,2.774768 -0.102014,1.405675 -0.29396,3.615726 -0.426548,4.911223 -0.132587,1.295497 -0.203227,2.454062 -0.156976,2.574588 0.04625,0.120526 0.814169,0.670786 1.706485,1.222801 1.885531,1.166446 4.653757,3.196095 6.122825,4.489224 0.564216,0.496643 1.106331,0.902988 1.204697,0.902988 0.09837,0 0.939931,-0.479486 1.870143,-1.065523 0.930212,-0.586038 2.750798,-1.619887 4.045747,-2.297443 l 2.35445,-1.23192 1.24985,1.37748 c 2.44363,2.693148 6.71678,8.519626 6.71678,9.158374 0,0.233863 -3.55009,5.521559 -4.87416,7.259836 l -0.58991,0.774453 v 12.401005 c 0,11.6927 -0.0176,12.401046 -0.30845,12.401727 -0.16965,3.52e-4 -2.48968,0.198187 -5.155616,0.439537 -9.611262,0.870112 -10.356594,0.978354 -10.928492,1.587111 -0.342456,0.364529 -0.410013,0.768549 -0.652882,3.90458 -0.148997,1.923886 -0.282708,3.512811 -0.297138,3.530943 -0.01444,0.01813 -2.642089,0.2356 -5.839238,0.483264 -3.197151,0.247663 -6.058426,0.483617 -6.358391,0.524342 l -0.545389,0.07405 -0.379171,-2.760563 C 73.801611,83.464085 73.7472,83.352923 72.058536,83.090022 70.351143,82.824206 55.556112,82.948508 55.060257,83.232835 c -0.621954,0.356633 -0.940215,1.322168 -1.306533,3.963735 -0.44516,3.210118 -0.507188,3.494059 -0.757442,3.467283 -0.113475,-0.01214 -2.936259,-0.250199 -6.272851,-0.529018 z M 65.655926,75.351784 c 0.399946,-0.19361 0.906031,-0.593937 1.124636,-0.889618 0.395217,-0.534557 0.39715,-0.568217 0.341975,-5.949287 -0.03986,-3.887668 -0.11691,-5.518938 -0.273586,-5.79252 -0.665536,-1.162139 -3.030417,-1.645833 -4.448769,-0.909918 -1.470406,0.762924 -1.502295,0.904475 -1.501911,6.666689 3.53e-4,5.450365 0.08682,6.073209 0.918702,6.618278 1.053418,0.690227 2.713695,0.801105 3.838953,0.256376 z M 44.462944,74.563987 c 3.386747,-0.717683 6.21032,-3.455674 7.087829,-6.872996 0.802094,-3.123632 -0.141275,-6.531685 -2.445957,-8.836368 -2.851793,-2.851793 -7.091097,-3.519674 -10.856329,-1.710356 -1.45654,0.699915 -3.376111,2.697227 -4.137591,4.305163 -3.318093,7.006451 2.771402,14.720967 10.352048,13.114557 z m 43.007515,0 c 2.500321,-0.529841 5.105821,-2.4629 6.274128,-4.654871 1.935134,-3.630682 1.272887,-8.071621 -1.648576,-11.055131 -4.112975,-4.200329 -11.133223,-3.424662 -14.395761,1.590587 -2.377216,3.654311 -1.855166,8.481727 1.250394,11.56247 2.374947,2.355969 5.310598,3.237008 8.519815,2.556945 z"
     id="path470" />
  <path
     style="fill:#000000;stroke:#bd11e4;stroke-width:0.211512"
     d="m 41.230895,71.600181 c -1.302648,-0.550185 -2.148851,-1.216578 -2.807465,-2.210903 -2.088576,-3.153176 -0.890769,-7.199922 2.60481,-8.800251 2.060475,-0.943316 4.693662,-0.457966 6.369092,1.173954 1.035172,1.008288 1.498933,1.86868 1.781556,3.305223 0.49847,2.533676 -1.029854,5.35339 -3.496505,6.45095 -1.279072,0.569136 -3.212491,0.604328 -4.451488,0.08103 z"
     id="path472" />
  <path
     style="fill:#363d52;stroke:#bd11e4;stroke-width:0.211512;fill-opacity:1"
     d="m 82.652068,71.600181 c -1.294609,-0.54679 -2.148281,-1.215716 -2.792303,-2.188013 -2.09716,-3.166133 -0.933844,-7.233164 2.511058,-8.778831 3.354697,-1.505194 7.178008,0.399515 8.137965,4.054196 0.676672,2.576177 -0.722815,5.507433 -3.210551,6.724568 -1.39874,0.68434 -3.289937,0.760897 -4.646169,0.18808 z"
     id="path474" />
  <path
     style="fill:#363d52;fill-opacity:1;stroke:#bd11e4;stroke-width:0.211512"
     d="m 41.9375,71.595513 c -3.084464,-0.871669 -4.90442,-3.849699 -4.150679,-6.791838 1.116089,-4.356519 6.223899,-5.920101 9.42012,-2.883649 1.378413,1.30951 1.70432,2.091513 1.70432,4.089459 0,1.910309 -0.270599,2.614695 -1.528883,3.979772 -1.341581,1.455443 -3.610273,2.124714 -5.444878,1.606256 z"
     id="path953" />
  <path
     style="fill:#363d52;fill-opacity:1;stroke:#bd11e4;stroke-width:0.211512"
     d="m 57.19647,107.9486 c -13.894905,-1.31098 -23.770461,-4.802 -29.360798,-10.379068 -1.91782,-1.913269 -2.934922,-3.381078 -3.682574,-5.314425 -0.684455,-1.76993 -0.8838,-3.110528 -0.885406,-5.954381 l -0.0013,-2.358209 1.454147,0.118427 c 2.477865,0.201798 10.236403,0.985804 10.835545,1.09494 0.677756,0.123455 0.663723,0.06486 0.944535,3.943702 0.108783,1.502619 0.288782,2.923194 0.399997,3.156833 0.400573,0.841517 0.945612,1.048321 3.286765,1.247099 4.144504,0.351894 12.601087,0.883533 14.05676,0.883705 2.138695,2.47e-4 2.191619,-0.07957 2.863022,-4.318206 0.199627,-1.260261 0.407838,-2.514046 0.462694,-2.786189 l 0.09974,-0.494805 6.314686,0.05415 c 3.473079,0.02978 6.352926,0.09381 6.399659,0.142285 0.04674,0.04847 0.329399,1.555497 0.628141,3.348946 0.668798,4.015012 0.696059,4.053987 2.835632,4.053987 1.798928,0 13.664749,-0.824595 15.200583,-1.056339 1.31941,-0.199087 2.014384,-0.461686 2.148784,-0.811928 0.04942,-0.128796 0.223168,-1.8432 0.386098,-3.809787 0.162932,-1.966587 0.30532,-3.586586 0.316421,-3.599998 0.0111,-0.01341 2.439356,-0.233134 5.396123,-0.488272 2.956766,-0.255138 5.883256,-0.512426 6.503306,-0.571751 l 1.12737,-0.107865 -0.10389,2.799391 c -0.11998,3.233065 -0.38668,4.514155 -1.35339,6.500857 -3.600091,7.398611 -14.883366,12.785941 -30.255338,14.445771 -3.021891,0.3263 -13.513659,0.49734 -16.017278,0.26113 z"
     id="path955" />
  <path
     style="fill:#363d52;fill-opacity:1;stroke:#bd11e4;stroke-width:0.211512"
     d="M 46.620851,89.943678 C 43.421727,89.654224 40.782516,89.39685 40.755938,89.371738 40.729359,89.346627 40.584706,87.915129 40.434486,86.190631 40.124728,82.634652 39.939652,81.879218 39.306049,81.584696 38.900468,81.396166 31.651794,80.591097 25.8662,80.09201 L 23.442621,79.882943 V 67.59657 55.310197 L 22.00193,53.300974 c -1.649303,-2.300162 -4.023379,-5.871107 -4.023379,-6.051732 0,-0.06699 0.708122,-1.16776 1.573603,-2.446154 1.781206,-2.631003 4.139488,-5.614282 5.436276,-6.877012 l 0.87415,-0.851191 1.425029,0.716491 c 0.783767,0.394069 2.55542,1.391814 3.937008,2.217209 1.381588,0.825394 2.595178,1.499981 2.696866,1.499078 0.101687,-8.81e-4 1.193456,-0.786877 2.426153,-1.746616 1.232696,-0.959737 3.284619,-2.446197 4.559829,-3.303242 l 2.318562,-1.558264 -0.102582,-1.233822 c -0.307442,-3.697773 -0.488553,-7.005008 -0.437794,-7.994422 l 0.05747,-1.120269 1.629119,-0.677362 c 2.188518,-0.909949 5.804396,-2.159023 7.912907,-2.733445 l 1.722578,-0.469282 0.399832,0.501437 c 0.219908,0.275791 1.294302,2.266293 2.387541,4.423338 l 1.987711,3.921901 5.287809,-8.28e-4 5.287809,-8.29e-4 0.881302,-1.884591 c 1.139956,-2.437703 3.19097,-6.211203 3.604992,-6.63254 0.31494,-0.320505 0.377493,-0.312769 2.515664,0.311091 2.425097,0.707576 6.51492,2.154823 8.101536,2.866854 l 1.024324,0.459682 -0.0087,1.341947 c -0.0048,0.738071 -0.151452,2.967948 -0.325994,4.955283 -0.174543,1.987335 -0.279795,3.715985 -0.233897,3.841445 0.0459,0.12546 1.243552,1.011776 2.661448,1.969592 1.417898,0.957816 3.424725,2.42168 4.459618,3.253033 1.034891,0.831351 1.973067,1.511548 2.084834,1.511548 0.111766,0 1.128989,-0.550455 2.260494,-1.223236 1.131507,-0.67278 2.929772,-1.690212 3.996152,-2.260962 l 1.93886,-1.037726 0.72295,0.806814 c 2.13288,2.380272 4.6942,5.683751 6.22509,8.028836 l 0.89595,1.372462 -0.38546,0.638048 c -0.63823,1.056439 -1.69966,2.626876 -3.42821,5.072162 l -1.63926,2.318993 -0.0498,12.251953 c -0.0274,6.738573 -0.0917,12.293739 -0.14279,12.34481 -0.0511,0.05107 -2.39098,0.29769 -5.199677,0.548041 -9.743055,0.868436 -10.738265,1.039076 -11.157123,1.913004 -0.132503,0.276463 -0.359666,1.961085 -0.511008,3.789597 -0.149855,1.810533 -0.281529,3.303707 -0.292607,3.318164 -0.01109,0.01445 -2.677267,0.234475 -5.924863,0.488926 -3.247596,0.254453 -6.03195,0.489951 -6.187452,0.523331 -0.237218,0.05092 -0.343815,-0.36828 -0.662173,-2.604048 -0.43454,-3.051708 -0.616501,-3.808162 -1.042414,-4.333605 -0.526299,-0.649285 -2.246059,-0.757918 -10.582403,-0.66846 -7.212963,0.0774 -7.659744,0.100823 -8.092936,0.424246 -0.610807,0.456035 -0.878655,1.290599 -1.292821,4.0282 -0.483528,3.196079 -0.501089,3.263825 -0.840172,3.240962 -0.161946,-0.01092 -2.911915,-0.256681 -6.11104,-0.546136 z m 18.65617,-14.253739 c 0.372692,-0.103487 0.967571,-0.454272 1.321953,-0.779522 l 0.644333,-0.591362 -0.002,-5.630061 c -0.0016,-4.364203 -0.05509,-5.72924 -0.238081,-6.071171 -0.357508,-0.668013 -1.442033,-1.189535 -2.702359,-1.299502 -0.982279,-0.08571 -1.224278,-0.03892 -2.080973,0.402291 -1.44105,0.742169 -1.471626,0.884553 -1.46981,6.844648 0.0016,5.131304 0.09274,5.913455 0.759736,6.517076 0.783174,0.708763 2.440333,0.976042 3.767206,0.607603 z M 44.462944,74.740247 c 3.129482,-0.663165 5.941513,-3.137821 7.01684,-6.174987 0.528257,-1.492023 0.642904,-3.89333 0.256665,-5.37594 -1.330936,-5.108894 -6.4785,-8.232296 -11.468001,-6.958471 -1.879064,0.479726 -3.101272,1.204767 -4.4831,2.659472 -2.970683,3.127356 -3.607663,7.013226 -1.764711,10.765539 1.923165,3.915628 6.179023,5.987818 10.442307,5.084387 z m 43.007515,0 c 4.328855,-0.917324 7.540353,-4.82523 7.531242,-9.16438 -0.0057,-2.728055 -0.926324,-4.913432 -2.900332,-6.885027 -2.011252,-2.008791 -4.22175,-2.84776 -7.055771,-2.677935 -5.142322,0.308147 -8.958618,4.337461 -8.967262,9.467799 -0.0046,2.739949 1.059864,5.114695 3.145233,7.016698 2.312359,2.10903 5.18791,2.891072 8.24689,2.242845 z"
     id="path957" />
  <path
     style="fill:#1f232f;fill-opacity:1;stroke:#bd11e4;stroke-width:0.211512"
     d="m 14.805866,123.8733 c -2.798418,-0.32411 -5.121396,-1.45338 -7.1540408,-3.47779 -1.5511896,-1.5449 -2.4307745,-2.9491 -3.0975334,-4.94501 L 4.1421172,114.21668 4.0885392,64.863793 C 4.0485354,28.014738 4.0868563,15.175983 4.2397928,14.188955 4.9647531,9.5101741 8.4420146,5.6488991 12.97443,4.4897025 c 1.33682,-0.341901 2.170989,-0.3475853 51.008062,-0.3475853 48.837068,0 49.671238,0.00568 51.008058,0.3475853 2.1731,0.5557841 3.6783,1.4396456 5.4206,3.1830021 1.23629,1.2370333 1.65705,1.8040183 2.23142,3.0068764 1.37883,2.887609 1.26843,-1.7519092 1.26843,53.302911 0,54.611678 0.0905,50.394618 -1.13895,53.054348 -1.45949,3.15735 -4.19925,5.46773 -7.7622,6.54572 -1.0101,0.30561 -3.2682,0.32092 -50.322317,0.34108 -27.095616,0.0116 -49.542366,-0.011 -49.881667,-0.0503 z m 58.694682,-15.80724 c 7.856957,-0.93676 14.339034,-2.64295 19.554997,-5.14719 5.403398,-2.59423 8.986995,-5.751914 10.782405,-9.500907 1.37881,-2.879101 1.28925,-1.503915 1.34745,-20.688194 l 0.0521,-17.162988 1.46572,-2.049386 c 1.7208,-2.406025 3.96202,-5.741746 4.10082,-6.103434 0.10785,-0.281056 -1.57362,-2.930121 -3.44778,-5.431786 -1.2775,-1.705239 -4.73095,-5.760682 -4.90556,-5.760682 -0.19645,0 -4.197581,2.170152 -5.771901,3.13059 -0.872489,0.532276 -1.795589,1.092949 -2.051334,1.245941 -0.524291,0.313643 -0.285356,0.453014 -2.972085,-1.73361 -0.727074,-0.591736 -2.273758,-1.703956 -3.437076,-2.471599 -2.922315,-1.928359 -2.903603,-1.914053 -2.821885,-2.157396 0.08523,-0.253798 0.556871,-5.585466 0.722279,-8.164988 l 0.114058,-1.778699 -1.827391,-0.799742 c -2.387599,-1.044912 -6.451504,-2.442359 -8.846614,-3.042066 -1.049098,-0.262682 -1.934016,-0.450299 -1.966485,-0.416926 -0.280772,0.28859 -2.003512,3.438542 -3.214338,5.877267 l -1.487721,2.996425 -1.26409,-0.08813 c -1.75471,-0.122335 -7.136952,-0.08569 -7.83203,0.05333 l -0.572832,0.114568 -1.518997,-3.036308 c -1.554884,-3.10804 -2.984589,-5.699976 -3.226595,-5.849544 -0.423118,-0.261501 -7.629647,1.99809 -10.851217,3.402376 l -1.586343,0.691488 0.04334,2.444243 c 0.02384,1.344333 0.166557,3.673657 0.317159,5.176277 0.253439,2.528653 0.252169,2.745155 -0.01706,2.908295 -1.750554,1.06072 -4.785349,3.192839 -6.395591,4.493268 -1.289046,1.041032 -2.094366,1.576814 -2.269218,1.509717 -0.149074,-0.05721 -0.994871,-0.553991 -1.879551,-1.103969 -0.884684,-0.549978 -2.639636,-1.544205 -3.899897,-2.209393 l -2.291384,-1.209432 -1.118224,1.198768 c -2.511912,2.692843 -7.254141,9.118295 -7.254141,9.82895 0,0.292886 2.741168,4.467206 4.431902,6.74901 l 1.208428,1.630888 v 16.841649 c 0,14.852755 0.03357,16.991466 0.284303,18.110266 1.555737,6.942026 8.934552,12.510763 20.602543,15.548613 3.852245,1.00296 7.270597,1.58065 12.955133,2.18938 2.414331,0.25854 13.965004,0.0965 16.744729,-0.23494 z"
     id="path959" />
  <path
     style="fill:#14161e;fill-opacity:1;stroke:#bd11e4;stroke-width:0.211512"
     d="M 12.886916,127.60459 C 6.7665273,126.27679 2.2342226,121.97644 0.55463752,115.90346 L 0.08813015,114.21668 V 64.070622 13.924564 L 0.48672673,12.359903 C 1.9790888,6.5017455 6.0418729,2.359809 12.073831,0.54705471 l 1.233822,-0.3707944 49.967822,-0.0461826 C 118.17913,0.07933315 114.8048,0.01719517 117.67539,1.1318493 c 2.21566,0.8603427 3.71942,1.8661124 5.53057,3.6990558 2.7164,2.7490968 4.16738,5.7129859 4.58544,9.3666159 0.13348,1.166496 0.17486,16.434652 0.13804,50.930663 l -0.0526,49.264756 -0.38862,1.36308 c -1.84292,6.46396 -6.5216,10.82014 -12.81921,11.93559 -0.71593,0.1268 -16.757713,0.18082 -50.851096,0.17123 -41.746626,-0.0118 -49.987383,-0.0535 -50.931008,-0.25825 z m 89.960974,-3.58529 12.16196,-0.11612 1.35565,-0.58107 c 2.87654,-1.23296 5.02341,-3.19815 6.39499,-5.85378 1.43284,-2.77423 1.32677,1.5018 1.32677,-53.485838 0,-54.3087942 0.0793,-50.704997 -1.17002,-53.19602 C 121.37843,7.7181339 118.78745,5.4944617 115.4505,4.3782599 114.51964,4.0668881 112.4947,4.0521617 64.552768,4.0081065 8.9818943,3.9570407 13.335937,3.8617431 10.663749,5.1875844 7.5251878,6.7448224 5.3504252,9.36615 4.2925834,12.867002 3.987762,13.875787 3.9707145,16.232983 3.9229663,63.974373 l -0.050057,50.049807 0.3767553,1.15381 c 1.1261402,3.4488 3.442793,6.19343 6.4933794,7.69297 1.810198,0.88981 2.409032,1.00729 5.737295,1.12553 4.257467,0.15125 71.068099,0.16889 86.367551,0.0228 z"
     id="path1929" />
</svg>
